<svg preserveAspectRatio="none" width="100%" height="100%" overflow="visible" style="display: block;" viewBox="0 0 98 105" fill="none" xmlns="http://www.w3.org/2000/svg">
<path id="Vector" fill-rule="evenodd" clip-rule="evenodd" d="M59.3681 94.5856H59.2261L58.3739 95.4416V95.5842H58.658L58.8 95.4416H58.942L59.3681 95.0136V94.5856ZM8.37971 2.28261L4.97101 6.99049L5.11304 7.84647L2.98261 11.413L2.41449 14.2663L1.84638 14.409L1.98841 15.6929L0.426087 20.8288L0 25.394L0.284058 32.2418L1.70435 38.6617L1.27826 39.5177L1.84638 42.5136L2.41449 43.2269L3.4087 47.7921L10.5101 62.3438L15.4812 70.4755L17.7536 72.1875L17.8957 73.4715L21.7304 77.894L22.5826 80.034L26.8435 86.1685L33.0928 92.4457V93.3016L41.3304 101.433L44.4551 103.573L45.5913 105L47.1536 104.857L47.8638 103.573L51.6986 100.007L52.2667 100.149L54.3971 97.2962L53.971 97.0109L54.3971 95.8696L55.5333 96.0122L58.0899 95.1563L59.0841 93.7296L59.6522 94.1576L60.6464 93.159L59.6522 93.4443L59.5101 93.0163L61.4986 89.7351L62.4928 90.0204L61.6406 91.1617H62.6348L62.9188 88.7364L65.0493 87.8804L65.1913 85.7405L64.7652 85.3125L65.4754 84.3139L66.6116 84.4565L66.8957 85.1698L68.6 84.0285L69.3101 81.7459L70.3043 80.7473L71.0145 80.6046L71.2986 81.0326L71.1565 79.4633L72.0087 78.6073H73.1449L74.5652 76.4674L73.9971 76.1821L74.2812 75.4688L76.9797 72.6155L78.542 70.1902L78.6841 68.9063L79.2522 68.4783L79.8203 69.3342L80.5304 68.3356L80.3884 66.909L81.2406 66.481L81.0986 65.3397L82.2348 63.6277L82.0928 60.6318L82.5188 60.2038L82.6609 60.7745L83.371 60.4891L83.513 62.3438L83.9391 61.7731L84.3652 62.0584L85.5015 58.4918L86.4957 58.3492L90.6145 50.6454L91.3246 47.6495L94.3072 42.7989L94.8754 39.9457L95.5855 39.2323L95.7275 36.8071L97.1478 33.3832L97.5739 30.9579L97.0058 31.1005L96.7217 30.5299L97.858 28.6753L98 23.8247L97.0058 18.6889L95.1594 14.9796L94.3072 14.837L92.887 13.553L93.029 12.269L87.7739 8.55978L78.8261 6.84783L78.9681 7.41848L78.4 7.7038L75.7015 7.56114L73.8551 8.27446L73.429 7.56114H72.7188L71.4406 8.41712L69.3101 8.84511L67.3217 10.5571L64.0551 11.413L57.6638 15.9783L55.5333 19.4022L54.3971 20.2582L53.971 19.6875L51.9826 22.2554L52.1246 23.2541L48.858 26.5353L44.8812 34.3818L37.0696 18.5462L34.6551 15.8356L34.229 14.6943L33.2348 14.409L30.8203 11.5557L31.1043 10.8424L28.4058 7.7038L26.5594 6.99049L26.1333 5.84918L20.4522 2.85326L21.0203 1.71196L17.3275 0L14.629 0.570652L13.2087 0L8.37971 2.28261ZM13.3507 3.56658L16.6174 3.70924L21.4464 6.27717L26.5594 10.9851L29.542 14.5516L38.3478 27.2486L39.7681 31.8139L40.9043 32.8125L40.7623 34.0965L41.7565 35.8084L41.4725 37.8057L42.6087 41.5149L43.3188 42.5136L44.5971 43.0842L46.1594 42.6563L46.8696 41.8003L48.7159 35.0951L52.1246 27.962L53.1188 27.3913L56.6696 22.6834L62.2087 17.5476L69.3101 13.4103L76.2696 11.2704L82.6609 11.1277L85.3594 12.269L89.3362 15.1223L90.3304 15.4076L93.313 21.3995L93.7391 29.8166L91.4667 36.9497L91.3246 38.6617L89.6203 42.3709V44.0829L88.9101 45.2242L88.342 45.0815L82.2348 57.3505L81.3826 57.9212L74.2812 69.7622L71.1565 73.3288L69.8783 76.3247L64.3391 82.0313L62.7768 84.5992L60.9304 86.4538L60.3623 88.3084L59.2261 88.4511L51.8406 97.0109L45.4493 103.003L44.029 99.8641L35.5072 92.1603L24.1449 78.322L19.1739 71.0462L13.4928 61.0598L9.8 53.4986L9.08986 53.2133L8.23768 51.7867L8.37971 50.788L6.53333 46.3655L3.4087 35.9511L3.55072 23.2541L4.97101 15.6929L7.10145 9.98641L9.37391 6.27717L11.3623 4.42255L13.3507 3.56658Z" fill="var(--fill-0, #5F7E51)"/>
</svg>
